<svg id="noun_Warning_1062304" xmlns="http://www.w3.org/2000/svg" xmlns:xlink="http://www.w3.org/1999/xlink" width="37.684" height="32.659" viewBox="0 0 37.684 32.659">
  <defs>
    <linearGradient id="linear-gradient" x1="0.5" x2="0.5" y2="1" gradientUnits="objectBoundingBox">
      <stop offset="0" stop-color="#16958f"/>
      <stop offset="0.542" stop-color="#0da9a2"/>
      <stop offset="1" stop-color="#0db2a9"/>
    </linearGradient>
  </defs>
  <path id="Path_1625" data-name="Path 1625" d="M23.842,11a2.962,2.962,0,0,0-2.578,1.439c0,.005-.01.008-.013.013s-3.919,6.586-7.864,13.242c-1.974,3.33-3.95,6.671-5.456,9.225-.753,1.277-1.39,2.361-1.845,3.14-.228.39-.417.7-.55.929a3.923,3.923,0,0,0-.275.51A2.93,2.93,0,0,0,5,40.715a2.964,2.964,0,0,0,2.944,2.944h31.8a2.964,2.964,0,0,0,2.944-2.944,2.93,2.93,0,0,0-.262-1.217,3.923,3.923,0,0,0-.275-.51c-.132-.23-.322-.539-.55-.929-.455-.779-1.092-1.864-1.845-3.14-1.506-2.553-3.482-5.895-5.456-9.225-3.945-6.655-7.858-13.232-7.864-13.242s0-.01,0-.013h-.013A2.962,2.962,0,0,0,23.842,11Zm0,2.512a.611.611,0,0,1,.432.209s3.917,6.6,7.864,13.255c1.973,3.329,3.952,6.674,5.456,9.225.752,1.275,1.38,2.354,1.832,3.127.226.387.41.7.536.916.095.165.192.367.2.366a.512.512,0,0,1,.013.1.414.414,0,0,1-.432.432H7.944a.414.414,0,0,1-.432-.432.513.513,0,0,1,.013-.1.449.449,0,0,1,.026-.065c.039-.071.107-.191.17-.3.126-.22.311-.529.536-.916.452-.773,1.08-1.852,1.832-3.127,1.5-2.55,3.483-5.9,5.456-9.225,3.947-6.658,7.864-13.255,7.864-13.255A.611.611,0,0,1,23.842,13.512Zm-.013,7.314a1.256,1.256,0,0,0-1.243,1.282V32.158a1.256,1.256,0,1,0,2.512,0V22.109a1.256,1.256,0,0,0-1.269-1.282Zm0,14.432a1.308,1.308,0,0,0-1.243,1.282v.837a1.256,1.256,0,1,0,2.512,0v-.837a1.256,1.256,0,0,0-1.269-1.282Z" transform="translate(-5 -11)" fill="url(#linear-gradient)"/>
</svg>
